<?xml version="1.0" encoding="utf-8"?>
<!-- Generator: Adobe Illustrator 23.0.6, SVG Export Plug-In . SVG Version: 6.00 Build 0)  -->
<svg version="1.1" id="Layer_1" xmlns="http://www.w3.org/2000/svg" xmlns:xlink="http://www.w3.org/1999/xlink" x="0px" y="0px"
	 viewBox="0 0 200 50" style="enable-background:new 0 0 200 50;" xml:space="preserve">
<style type="text/css">
	.st0{fill-rule:evenodd;clip-rule:evenodd;fill:#E5E5E5;}
	.st1{fill-rule:evenodd;clip-rule:evenodd;fill:#808080;}
</style>
<rect id="Rectangle" y="0" class="st0" width="200" height="50"/>
<path class="st1" d="M133,30h23c0.6,0,1,0.4,1,1v6c0,0.6-0.4,1-1,1h-23c-0.6,0-1-0.4-1-1v-6C132,30.4,132.4,30,133,30z M99,12h88
	c0.6,0,1,0.4,1,1v10c0,0.6-0.4,1-1,1H99c-0.6,0-1-0.4-1-1V13C98,12.4,98.4,12,99,12z M164,30h23c0.6,0,1,0.4,1,1v6c0,0.6-0.4,1-1,1
	h-23c-0.6,0-1-0.4-1-1v-6C163,30.4,163.4,30,164,30z"/>
</svg>
