<?xml version="1.0" encoding="utf-8"?>
<!-- Generator: Adobe Illustrator 23.0.6, SVG Export Plug-In . SVG Version: 6.00 Build 0)  -->
<svg version="1.1" id="Layer_1" xmlns="http://www.w3.org/2000/svg" xmlns:xlink="http://www.w3.org/1999/xlink" x="0px" y="0px"
	 viewBox="0 0 200 50" style="enable-background:new 0 0 200 50;" xml:space="preserve">
<style type="text/css">
	.st0{fill-rule:evenodd;clip-rule:evenodd;fill:#E5E5E5;}
	.st1{fill-rule:evenodd;clip-rule:evenodd;fill:#808080;}
</style>
<rect id="Rectangle" y="0" class="st0" width="200" height="50"/>
<path class="st1" d="M73,12h23c0.6,0,1,0.4,1,1v6c0,0.6-0.4,1-1,1H73c-0.6,0-1-0.4-1-1v-6C72,12.4,72.4,12,73,12z M56,26h88
	c0.6,0,1,0.4,1,1v10c0,0.6-0.4,1-1,1H56c-0.6,0-1-0.4-1-1V27C55,26.4,55.4,26,56,26z M104,12h23c0.6,0,1,0.4,1,1v6c0,0.6-0.4,1-1,1
	h-23c-0.6,0-1-0.4-1-1v-6C103,12.4,103.4,12,104,12z"/>
</svg>
