<svg xmlns="http://www.w3.org/2000/svg" width="511.969" height="511.938" viewBox="0 0 511.969 511.938">
  <path class="cls-1" fill="#d30a21" fill-rule="evenodd" d="M323.687,188.378C335.6-62.844,46.608-52.649,5.809,159.466-3.639,208.573-2.852,302,18.09,396.223a128.961,128.961,0,0,0,97.7,97.684c94.249,20.937,187.692,21.725,236.808,12.279C564.763,465.4,574.959,176.46,323.687,188.378Z" transform="translate(-0.031 -0.031)"/>
  <path class="cls-2" fill="#fe132f" fill-rule="evenodd" d="M446.576,462.74c-24.721,20.2-56.319,35.56-94.453,42.9-49.051,9.437-172.367,8.649-266.489-12.268-48.578-10.8-56.773-19-67.572-67.588C-2.852,331.642-3.638,208.311,5.8,159.252c40.744-211.91,329.351-222.1,317.449,28.884C308.932,374.173,343.828,517.348,446.576,462.74Z" transform="translate(-0.031 -0.031)"/>
</svg>
