<svg xmlns="http://www.w3.org/2000/svg" width="18" height="18" viewBox="0 0 18 18">
<path fill="#a0a5ab" fill-rule="evenodd" d="M15.3,15.2c-2.8,1.1-3.9-3-3.5-8.3C17.4,7,18.3,12.3,15.3,15.2z M14.8,15.5c-0.1,0-0.2,0.1-0.3,0.1
	c-2.8,1.1-3.9-3-3.5-8.3c0,0,0-0.1,0-0.1c0-0.1,0-0.2,0-0.3c0.2-3.4-1.4-5.2-3.4-5.7c0,0,0,0-0.1,0c0,0,0,0-0.1,0c0,0-0.1,0-0.1,0
	C4.9,0.6,1.9,2.3,1.2,6c0,0.1,0,0.2,0,0.3C1.1,6.8,1,7.6,1,8.5v0c0,1.8,0.2,4,0.6,5.9c0.3,1.5,0.6,1.8,2.1,2.1C5.2,16.8,7,17,8.6,17
	c1.4,0,2.6,0,3.4-0.2c0.9-0.2,1.7-0.5,2.4-1c0.1,0,0.2-0.1,0.2-0.2c0.1-0.1,0.2-0.2,0.3-0.2C14.9,15.5,14.9,15.5,14.8,15.5z"/>
</svg>
