<svg xmlns="http://www.w3.org/2000/svg" viewBox="0 0 64 64"><defs><style>.cls-1{fill:none;}.cls-2{fill:#fff;}.cls-3{fill:#d99b21;}.cls-4{fill:#001a4d;}</style></defs><title>GravityKit icon - Uncanny Automator</title><g id="Layer_3" data-name="Layer 3"><rect class="cls-1" width="64" height="64"/></g><g id="Layer_1" data-name="Layer 1"><rect class="cls-2" x="14.41" y="8.63" width="11" height="15"/><rect class="cls-2" x="20.41" y="26.63" width="11" height="15"/><path class="cls-3" d="M21.24,43.45c.25.68.49,1.4.69,2.1a4.66,4.66,0,0,1-7.5,1.84,14.3,14.3,0,0,1-.85-1.87c1.8.33,6-.64,7.66-2.07ZM31.69,16.51a5.2,5.2,0,0,0,0-2.6,5.29,5.29,0,0,0-1.56-2.56s-1.67-3.08-4.71-3.08a7.74,7.74,0,0,0-4.95,1.85,9.75,9.75,0,0,0-1,7,9.65,9.65,0,0,0,3.87,5.45s3.91.27,6.12-1.37,2.17-4.7,2.17-4.7ZM36,32.78l-6.51,5.46a25.46,25.46,0,0,1-4.69-7.8l7.43-4.31A38.82,38.82,0,0,0,36,32.78Zm-6.61,5.28h0C29.47,38.14,29.47,38.13,29.41,38.06Zm22.2,4.56C50.5,43.91,47.09,46,45.27,46A10.12,10.12,0,0,1,45.76,48c1.25,2.07,6.54,0,6-3.34a12.17,12.17,0,0,0-.16-2ZM33.27,54.09c0,.59-.05,1.22-.08,1.88.83,2.69,6.15,3,7.64-.08A7.57,7.57,0,0,0,42,53.19,10.29,10.29,0,0,1,33.27,54.09ZM46.45,17.3c.16-.55.3-1.1.41-1.66A55,55,0,0,0,40.08,15a7.61,7.61,0,0,1-.66,1.56c1.06,2.61,5.32,2.85,7,.74Z"/><path class="cls-4" d="M51.61,42.62a11,11,0,0,0-10.5-9.45,10.86,10.86,0,0,0-2.41.27,21.79,21.79,0,0,1-2.5-3.39c4.31-1.79,8.55-7,10.25-12.75A3.9,3.9,0,0,1,44,18c-3,0-4.19-1-4.55-1.39-1.26,2.25-3.65,4.13-6.12,4.13a9.39,9.39,0,0,1-1.83-.19c1-1.88,1.18-3.48.56-4.19a.26.26,0,0,0-.36,0,.25.25,0,0,0-.08.14c-.94,3.75-5.32,6.07-9.24,6.07s-7.27-2.25-7.27-5.69c0-3.85,4.45-7.31,9.41-7.31a8.21,8.21,0,0,1,5.58,2,.25.25,0,0,0,.36,0,.27.27,0,0,0,.07-.14c.33-2.21-3.89-5.17-9-5.17a12.9,12.9,0,0,0-1.76.12l-.32-1.17a.68.68,0,0,1,.19-.74A2.6,2.6,0,1,0,16,4.53a2.49,2.49,0,0,0,1,.55.68.68,0,0,1,.52.56l.28,1.07c-4.89,1.49-8.48,5.73-8.48,10.4,0,6.1,5.23,8.87,8.37,9.54a9.34,9.34,0,0,0-3,2.61l-.53-.92a.45.45,0,0,1,0-.45,1.17,1.17,0,0,0-.64-1.53,1.18,1.18,0,0,0-1.53.65,1.17,1.17,0,0,0,.65,1.52,1.29,1.29,0,0,0,.28.08.4.4,0,0,1,.37.25L14,30.23a11,11,0,0,0-1,2.06L10.4,27.7a.42.42,0,0,1,0-.48,1.57,1.57,0,0,0-.72-2.09A1.59,1.59,0,0,0,8.92,25a1.55,1.55,0,0,0-1.5,1.62,1.57,1.57,0,0,0,1.45,1.5.4.4,0,0,1,.4.25L12.55,34a14.7,14.7,0,0,0-.32,3.17,23.69,23.69,0,0,0,1.35,8.32,3.16,3.16,0,0,0,2.16.53c2.92,0,5.35-1.24,5.5-2.6,2.54,3.9,5.23,5,9.72,6.11,1.42.36,2.32,1.42,2.32,4,0,.16,0,.32,0,.49.38.42,1.35,1.06,3.8,1.06,3.12,0,4.48-1.3,5-2a12.41,12.41,0,0,0,.37-3.1c0-3.21-2.36-6.23-5.57-8A10,10,0,0,1,39,41.89c2.78,0,5.14,1.12,6.25,4.14a2.07,2.07,0,0,0,1.17.28C48.37,46.31,51,44.28,51.61,42.62ZM35.15,32.88a40,40,0,0,1-8.1,6,.39.39,0,0,1-.46-.07,19.39,19.39,0,0,1-3.84-6.25.36.36,0,0,1,.17-.45,74.7,74.7,0,0,0,8.82-5.27.26.26,0,0,1,.36.06l0,0a37.62,37.62,0,0,0,3.06,5.43.39.39,0,0,1,0,.5ZM56.59,47.35c0,2.88-3.13,5.33-6.51,5.33-2.26,0-3.85-1.56-4.29-4.55l0-.17a1.32,1.32,0,0,0,.94.3c2.11,0,5.07-2.25,5.07-3.64a2.85,2.85,0,0,1,1-.13c1.95,0,3.78,1,3.78,2.86ZM40.83,55.89a8.48,8.48,0,0,1,1.84,4.34A3.48,3.48,0,0,1,39.28,64c-3.17,0-6.11-3.19-6.11-7,0-.35,0-.68,0-1,.29.47,1.14,1.15,3.62,1.15A6.11,6.11,0,0,0,40.83,55.89ZM21.93,45.55a12.91,12.91,0,0,1,.57,3.36c0,1.65-.44,2.65-1.46,3-.3,1.82-1.06,2.86-2.57,2.86-2.14,0-4.16-2.23-4.16-6.24a5.35,5.35,0,0,1,.12-1.13,3.77,3.77,0,0,0,2.09.48A6.46,6.46,0,0,0,21.93,45.55ZM37.85,11.84c0-.66.56-1,1.3-1a3.24,3.24,0,0,1,1,.19,7.73,7.73,0,0,1-.12-1.36c0-2.33.83-4.16,2.87-4.16,2.3,0,4.29,2.85,4.29,6.76a17,17,0,0,1-.36,3.41,5.42,5.42,0,0,1-2.63.49c-3.29,0-4.15-1.13-4.15-1.13-1-.82-2.23-2.08-2.23-3.16Z"/></g></svg>