<?xml version="1.0" encoding="utf-8"?>
<!-- Generator: Adobe Illustrator 22.0.1, SVG Export Plug-In . SVG Version: 6.00 Build 0)  -->
<svg version="1.1" id="Layer_3" xmlns="http://www.w3.org/2000/svg" x="0px" y="0px"
     viewBox="0 0 500 500" style="enable-background:new 0 0 500 500;" xml:space="preserve">
<style type="text/css">
	.st0{fill:#A0A5AA;stroke:#A0A5AA;stroke-width:30;stroke-miterlimit:10;}
	.st1{display:none;fill:#F9EC14;}
	.st2{display:none;fill:#191818;enable-background:new    ;}
	.st3{font-family:'ArialRoundedMTBold';}
	.st4{font-size:160.6864px;}
</style>
<path id="XMLID_8_" class="st0" d="M461.6,485.2H38.9c-13.1,0-23.6-15.2-23.6-34V48.8c0-18.8,10.6-34,23.6-34h333.2l113.2,113.1
	v323.3C485.2,470,474.6,485.2,461.6,485.2z"/>
<path id="XMLID_44_" class="st1" d="M407.1,271.2H81.5c-10.1,0-18.2-8.1-18.2-18.2V37.4c0-10,8.2-18.2,18.2-18.2h254.7l89.1,86.3
	V253C425.3,263.1,417.1,271.2,407.1,271.2z"/>
<text id="XMLID_43_" transform="matrix(1.0006 0 0 1 28.1943 197.4224)" class="st2 st3 st4">digits</text>
</svg>
