<?xml version="1.0" encoding="utf-8"?>
<!-- Generator: Adobe Illustrator 16.0.4, SVG Export Plug-In . SVG Version: 6.00 Build 0)  -->
<!DOCTYPE svg PUBLIC "-//W3C//DTD SVG 1.1//EN" "http://www.w3.org/Graphics/SVG/1.1/DTD/svg11.dtd">
<svg version="1.1" id="Layer_1" xmlns="http://www.w3.org/2000/svg" xmlns:xlink="http://www.w3.org/1999/xlink" x="0px" y="0px"
	 width="228.355px" height="40.982px" viewBox="0 0 228.355 40.982" enable-background="new 0 0 228.355 40.982"
	 xml:space="preserve">
<g>
	<path fill="#232A35" d="M57.174,22.814v-8.671h4.343c1.949,0,3.018,1.312,3.018,2.886c0,1.56-1.066,2.873-3.018,2.873h-2.104v2.912
		H57.174z M62.257,17.029c0-0.598-0.44-0.938-1.04-0.938H59.41v1.859h1.807C61.815,17.952,62.257,17.614,62.257,17.029z"/>
	<path fill="#232A35" d="M75.569,22.814l-1.456-2.912h-1.146v2.912h-2.235v-8.671h4.344c1.924,0,3.016,1.272,3.016,2.886
		c0,1.508-0.923,2.312-1.729,2.6l1.769,3.187L75.569,22.814L75.569,22.814z M75.816,17.016c0-0.585-0.493-0.925-1.079-0.925h-1.77
		v1.859h1.77C75.323,17.952,75.816,17.627,75.816,17.016z"/>
	<path fill="#232A35" d="M84.083,18.485c0-2.64,1.989-4.485,4.643-4.485c2.652,0,4.628,1.848,4.628,4.485s-1.977,4.483-4.628,4.483
		C86.073,22.969,84.083,21.124,84.083,18.485z M91.077,18.485c0-1.417-0.924-2.509-2.354-2.509c-1.442,0-2.366,1.092-2.366,2.509
		c0,1.404,0.924,2.509,2.366,2.509C90.154,20.994,91.077,19.889,91.077,18.485z"/>
	<path fill="#232A35" d="M98.683,22.19l0.938-1.703c0.312,0.26,0.729,0.507,1.248,0.507c0.701,0,1.155-0.455,1.155-1.183v-5.668
		h2.235v5.692c0,2.146-1.3,3.133-3.197,3.133C100.19,22.969,99.333,22.761,98.683,22.19z"/>
	<path fill="#232A35" d="M111.02,22.814v-8.671h6.356v1.948h-4.121v1.354h4.03v1.95h-4.03v1.469h4.121v1.95H111.02z"/>
	<path fill="#232A35" d="M123.435,18.485c0-2.678,2.027-4.485,4.692-4.485c2.094,0,3.211,1.185,3.783,2.327l-1.926,0.91
		c-0.285-0.689-1.025-1.261-1.857-1.261c-1.417,0-2.418,1.092-2.418,2.509s1.001,2.509,2.418,2.509c0.832,0,1.572-0.572,1.857-1.261
		l1.926,0.91c-0.561,1.116-1.689,2.325-3.783,2.325C125.463,22.969,123.435,21.15,123.435,18.485z"/>
	<path fill="#232A35" d="M140.01,22.814v-6.723h-2.432v-1.948h7.085v1.948h-2.418v6.723H140.01z"/>
	<path fill="#232A35" d="M156.766,22.814V19.33h-3.602v3.484h-2.235v-8.671h2.235v3.235h3.602v-3.235h2.235v8.671H156.766z"/>
	<path fill="#232A35" d="M165.762,19.303v-5.16h2.274v5.083c0,1.025,0.609,1.768,1.833,1.768c1.194,0,1.818-0.741,1.818-1.768
		v-5.083h2.264v5.146c0,2.158-1.313,3.679-4.082,3.679C167.075,22.969,165.762,21.436,165.762,19.303z"/>
	<path fill="#232A35" d="M180.711,22.814v-8.671h3.642c2.729,0,4.692,1.638,4.692,4.329c0,2.689-1.963,4.342-4.681,4.342H180.711z
		 M186.757,18.472c0-1.341-0.807-2.381-2.393-2.381h-1.417v4.771h1.403C185.873,20.864,186.757,19.759,186.757,18.472z"/>
	<path fill="#232A35" d="M195.362,22.814v-8.671h3.641c2.729,0,4.692,1.638,4.692,4.329c0,2.689-1.963,4.342-4.68,4.342H195.362z
		 M201.407,18.472c0-1.341-0.807-2.381-2.393-2.381h-1.417v4.771H199C200.523,20.864,201.407,19.759,201.407,18.472z"/>
	<path fill="#232A35" d="M210.013,22.814v-8.671h2.235v6.721h3.483v1.95H210.013z"/>
	<path fill="#232A35" d="M222.09,22.814v-8.671h6.357v1.948h-4.121v1.354h4.029v1.95h-4.029v1.469h4.121v1.95H222.09z"/>
</g>
<g>
	<polygon fill="#232A35" points="7.219,30.874 2.58,30.874 2.58,7.508 34.456,7.508 34.456,30.874 18.059,30.874 9.303,39.352 
		10.881,40.982 18.977,33.141 36.723,33.141 36.723,5.24 0.313,5.24 0.313,33.141 8.353,33.141 8.353,30.874 	"/>
	<polyline fill="#232A35" points="8.225,14.713 28.492,14.713 28.492,12.446 8.225,12.446 	"/>
	<polyline fill="#232A35" points="8.225,20.345 15.026,20.345 15.026,18.078 8.225,18.078 	"/>
	<polyline fill="#232A35" points="18.147,20.345 28.573,20.345 28.573,18.078 18.147,18.078 	"/>
	<polyline fill="#232A35" points="8.225,25.979 20.076,25.979 20.076,23.712 8.225,23.712 	"/>
	<polyline fill="#232A35" points="22.794,25.979 28.492,25.979 28.492,23.712 22.794,23.712 	"/>
</g>
</svg>
