<?xml version="1.0" encoding="UTF-8"?>
<svg width="16px" height="16px" viewBox="0 0 16 16" version="1.1" xmlns="http://www.w3.org/2000/svg" xmlns:xlink="http://www.w3.org/1999/xlink">
    <!-- Generator: Sketch 61 (89581) - https://sketch.com -->
    <title>Icons - clear</title>
    <desc>Created with Sketch.</desc>
    <g id="Forms" stroke="none" stroke-width="1" fill="none" fill-rule="evenodd">
        <g id="Forms-/-Frontend-/-Default" transform="translate(-974.000000, -6334.000000)" fill="#888888" fill-rule="nonzero">
            <g id="Signature-/-Flat-Copy-2" transform="translate(600.000000, 6324.000000)">
                <g id="Icons---clear" transform="translate(374.000000, 10.000000)">
                    <path d="M14.390625,7.234375 C14.6614583,7.265625 14.9036458,7.1953125 15.1171875,7.0234375 C15.3307292,6.8515625 15.453125,6.63020833 15.484375,6.359375 L15.484375,6.359375 L15.484375,2.875 C15.484375,2.60416667 15.3880208,2.36979167 15.1953125,2.171875 C15.0026042,1.97395833 14.765625,1.875 14.484375,1.875 C14.359375,1.875 14.2395833,1.8984375 14.125,1.9453125 C14.0104167,1.9921875 13.90625,2.05729167 13.8125,2.140625 L13.8125,2.140625 L13.0625,2.8125 C13.0208333,2.77083333 12.9765625,2.72916667 12.9296875,2.6875 C12.8828125,2.64583333 12.8385417,2.60416667 12.796875,2.5625 C12.3802083,2.19791667 11.9375,1.88541667 11.46875,1.625 C10.9895833,1.36458333 10.4921875,1.16145833 9.9765625,1.015625 C9.4609375,0.869791667 8.92708333,0.786458333 8.375,0.765625 C7.83333333,0.734375 7.28645833,0.765625 6.734375,0.859375 C6.11979167,0.963541667 5.53645833,1.14583333 4.984375,1.40625 C4.43229167,1.65625 3.92447917,1.96875 3.4609375,2.34375 C2.99739583,2.71875 2.58333333,3.14583333 2.21875,3.625 C1.85416667,4.10416667 1.55208333,4.625 1.3125,5.1875 C1.17708333,5.51041667 1.17447917,5.83072917 1.3046875,6.1484375 C1.43489583,6.46614583 1.66145833,6.69270833 1.984375,6.828125 C2.296875,6.96354167 2.61458333,6.96614583 2.9375,6.8359375 C3.26041667,6.70572917 3.48958333,6.47916667 3.625,6.15625 C3.92708333,5.41666667 4.39322917,4.79427083 5.0234375,4.2890625 C5.65364583,3.78385417 6.36979167,3.46354167 7.171875,3.328125 C7.890625,3.19270833 8.59635417,3.22395833 9.2890625,3.421875 C9.98177083,3.61979167 10.5989583,3.95833333 11.140625,4.4375 L11.140625,4.4375 L11.171875,4.46875 C11.1822917,4.47916667 11.1927083,4.484375 11.203125,4.484375 L11.203125,4.484375 L10.46875,5.15625 C10.2604167,5.33333333 10.1510417,5.55989583 10.140625,5.8359375 C10.1302083,6.11197917 10.2135417,6.35416667 10.390625,6.5625 C10.4739583,6.65625 10.5703125,6.73177083 10.6796875,6.7890625 C10.7890625,6.84635417 10.90625,6.88020833 11.03125,6.890625 L11.03125,6.890625 L14.390625,7.234375 Z M7.671875,15.234375 C8.21354167,15.265625 8.76041667,15.234375 9.3125,15.140625 C9.92708333,15.0260417 10.5104167,14.84375 11.0625,14.59375 C11.6145833,14.34375 12.125,14.03125 12.59375,13.65625 C13.0625,13.28125 13.4791667,12.8541667 13.84375,12.375 C14.2083333,11.8854167 14.5052083,11.359375 14.734375,10.796875 C14.8697917,10.484375 14.8723958,10.1666667 14.7421875,9.84375 C14.6119792,9.52083333 14.390625,9.296875 14.078125,9.171875 C13.7552083,9.03645833 13.4348958,9.03385417 13.1171875,9.1640625 C12.7994792,9.29427083 12.5729167,9.515625 12.4375,9.828125 C12.125,10.5677083 11.65625,11.1927083 11.03125,11.703125 C10.40625,12.2135417 9.6875,12.5364583 8.875,12.671875 C8.15625,12.796875 7.45052083,12.7604167 6.7578125,12.5625 C6.06510417,12.3645833 5.453125,12.03125 4.921875,11.5625 C4.91145833,11.5520833 4.90104167,11.5442708 4.890625,11.5390625 C4.88020833,11.5338542 4.875,11.5260417 4.875,11.515625 L4.875,11.515625 L5.625,10.84375 C5.82291667,10.65625 5.9296875,10.4244792 5.9453125,10.1484375 C5.9609375,9.87239583 5.875,9.63541667 5.6875,9.4375 C5.61458333,9.34375 5.52083333,9.26822917 5.40625,9.2109375 C5.29166667,9.15364583 5.17708333,9.11979167 5.0625,9.109375 L5.0625,9.109375 L1.703125,8.75 C1.43229167,8.72916667 1.19010417,8.8046875 0.9765625,8.9765625 C0.763020833,9.1484375 0.640625,9.36979167 0.609375,9.640625 C0.609375,9.66145833 0.606770833,9.6796875 0.6015625,9.6953125 C0.596354167,9.7109375 0.59375,9.72916667 0.59375,9.75 L0.59375,9.75 L0.59375,13.125 C0.59375,13.3958333 0.692708333,13.6302083 0.890625,13.828125 C1.08854167,14.0260417 1.32291667,14.125 1.59375,14.125 C1.71875,14.125 1.83854167,14.1015625 1.953125,14.0546875 C2.06770833,14.0078125 2.171875,13.9427083 2.265625,13.859375 L2.265625,13.859375 L3,13.203125 C3.04166667,13.2447917 3.0859375,13.2838542 3.1328125,13.3203125 C3.1796875,13.3567708 3.22395833,13.3958333 3.265625,13.4375 C3.671875,13.8020833 4.11458333,14.1145833 4.59375,14.375 C5.07291667,14.625 5.5703125,14.8229167 6.0859375,14.96875 C6.6015625,15.1145833 7.13020833,15.203125 7.671875,15.234375 Z" id="®"></path>
                </g>
            </g>
        </g>
    </g>
</svg>