<?xml version="1.0" encoding="utf-8"?><svg xmlns="http://www.w3.org/2000/svg" viewBox="0 0 64 64"><defs><style>.cls-1{fill:#00e4bc;}.cls-2{fill:#fefefe;}.cls-3{fill:#f1f1f1;}</style></defs><title>Advanced Custom Fields icon - Uncanny Automator</title><g id="Layer_2" data-name="Layer 2"><rect class="cls-1" width="64" height="64" rx="32"/></g><g id="Layer_3" data-name="Layer 3"><path class="cls-2" d="M57,20.61v5.3H47.93c-.2,0-.21.08-.21.24,0,1.22,0,2.45,0,3.67,0,.21.06.26.26.26H56.2c.2,0,.27,0,.27.25q0,2.31,0,4.62c0,.23-.07.27-.28.26H48c-.22,0-.27.06-.27.28v7.74c0,.1,0,.2,0,.3H42.25V40.74c.3-.3.63-.58.93-.89a11.88,11.88,0,0,0,2-3,11.69,11.69,0,0,0,.85-2.69c0-.16,0-.17-.15-.17s-.53,0-.79,0-.25.09-.28.24A10.88,10.88,0,0,1,43.94,37a13.41,13.41,0,0,1-1.69,2.59l-.16.15a11.31,11.31,0,0,1-7.17,3.65,1,1,0,0,0-.52.09h-.35a1.22,1.22,0,0,0-.8,0h-.4c0-.09-.11-.05-.17-.06A9.81,9.81,0,0,1,30.6,43c-.13-.33-.26-.66-.4-1L28,36.76l-1.65-4C25.59,30.85,24.82,29,24,27.09c-.08-.18-.09-.43-.31-.54l.09-.18A11.4,11.4,0,0,1,40.58,23a16.11,16.11,0,0,1,1.67,1.53l.22.3A10.92,10.92,0,0,1,44.85,30c0,.16.1.24.28.23s.5,0,.75,0,.22,0,.18-.2a11.44,11.44,0,0,0-3.8-6.59c0-.84,0-1.68,0-2.52,0-.23,0-.3.3-.3H57ZM42.25,32.09c0-.56,0-1.12,0-1.68,0-.18,0-.21-.22-.21-.68,0-1.37,0-2.05,0a.34.34,0,0,1-.39-.27,6.29,6.29,0,1,0-5.13,8.38,6.14,6.14,0,0,0,5.15-4.16.28.28,0,0,1,.32-.22h2.13c.15,0,.2,0,.19-.19C42.24,33.2,42.25,32.64,42.25,32.09Z" transform="translate(0 0)"/><path class="cls-2" d="M7,43.34v-.05c.07,0,.07-.11.09-.17Q11.53,31.93,16,20.74c0-.07.09-.14.05-.23h.1s.07,0,.11,0h2.62c.28,0,.56,0,.84,0a.32.32,0,0,1,.35.23c1,2.42,2,4.83,3,7.24.61,1.49,1.22,3,1.84,4.46L27,37.75c.65,1.58,1.29,3.15,1.94,4.72l.34.85-.09,0-5.87,0c-.16,0-.2-.07-.25-.19-.37-1-.76-1.92-1.13-2.89a.25.25,0,0,0-.28-.2H14.32a.24.24,0,0,0-.27.19c-.37,1-.75,2-1.12,2.93a.23.23,0,0,1-.28.19H7ZM18,29.55c-.61,1.76-1.19,3.47-1.79,5.17-.07.2,0,.17.16.17,1.12,0,2.23,0,3.35,0,.22,0,.22,0,.16-.23-.37-1-.73-2-1.09-2.94Z" transform="translate(0 0)"/><path class="cls-3" d="M18.8,20.51l0,0H16.21s-.07,0-.11,0Z" transform="translate(0 0)"/><path class="cls-3" d="M33.25,43.49a1.22,1.22,0,0,1,.8,0Z" transform="translate(0 0)"/><path class="cls-3" d="M30.6,43a7.45,7.45,0,0,1-1.38-.46l-.25-.1c-.65-1.57-1.29-3.14-1.94-4.72l-2.19-5.28C24.22,31,23.61,29.5,23,28l.54-1.14c.05-.11.12-.21.18-.32.22.11.23.36.31.54.79,1.88,1.56,3.76,2.33,5.64l1.65,4L30.2,42C30.34,42.37,30.47,42.7,30.6,43Z" transform="translate(0 0)"/><path class="cls-3" d="M42.25,24.55V23.41A11.44,11.44,0,0,1,46.06,30c0,.2,0,.21-.18.2s-.5,0-.75,0-.25-.07-.28-.23a10.92,10.92,0,0,0-2.38-5.13Z" transform="translate(0 0)"/><path class="cls-3" d="M42.26,40.74V39.6A13.41,13.41,0,0,0,43.94,37a10.88,10.88,0,0,0,.91-2.83c0-.15.09-.25.28-.24s.53,0,.79,0,.18,0,.15.17a11.69,11.69,0,0,1-.85,2.69,11.88,11.88,0,0,1-2,3C42.89,40.16,42.56,40.44,42.26,40.74Z" transform="translate(0 0)"/></g></svg>